<?xml version="1.0" encoding="UTF-8"?>
<svg width="182px" height="276px" viewBox="0 0 182 276" version="1.1" xmlns="http://www.w3.org/2000/svg" xmlns:xlink="http://www.w3.org/1999/xlink">
    <title>B - Green@1x</title>
    <defs>
        <polygon id="path-1" points="-3.14315449e-15 0 181.711785 0 181.711785 72.9956251 -3.14315449e-15 72.9956251"></polygon>
    </defs>
    <g id="Page-1" stroke="none" stroke-width="1" fill="none" fill-rule="evenodd">
        <g id="Artboard" transform="translate(-696, -2318)">
            <g id="B---Green" transform="translate(696.0423, 2318)">
                <g id="B-Copy-2" transform="translate(9.2122, 80.2778)" fill="#018B45" fill-rule="nonzero">
                    <path d="M0,21.5728874 L0,4.62276159 C3.47642861,4.21184945 7.61746857,3.74957329 12.4231199,3.23593311 C17.2287712,2.72229294 22.0344225,2.20865276 26.8400738,1.69501258 C31.6457251,1.18137241 35.8378891,0.770460265 39.4165656,0.462276159 C42.9952421,0.154092053 45.2958198,0.102728035 46.3182988,0.308184106 C48.158761,0.924552319 49.9480993,2.10592473 51.6863136,3.85230133 C53.4245279,5.59867793 55.0093704,7.49914658 56.440841,9.55370729 C57.8723116,11.608268 58.6902948,13.1491885 58.8947906,14.1764689 L58.8947906,163.64576 L108.280526,174.740388 C109.507501,174.945844 110.7856,173.969928 112.114823,171.812639 C113.444045,169.65535 114.67102,166.573509 115.795747,162.567116 C116.920474,158.560723 117.840705,154.040689 118.55644,149.007015 C119.272176,143.973342 119.630043,138.785576 119.630043,133.443718 C119.630043,124.814563 118.198573,119.010429 115.335632,116.031316 C112.47269,113.052203 108.178279,110.740822 102.452396,109.097174 L78.8331311,102.625307 L78.8331311,84.7506292 L102.145652,84.7506292 C103.168131,84.7506292 104.19061,83.7747129 105.213089,81.8228802 C106.235568,79.8710475 107.1558,77.2514826 107.973783,73.9641855 C108.791766,70.6768884 109.456377,67.1327711 109.967617,63.3318338 C110.478856,59.5308965 110.734476,55.7813232 110.734476,52.0831139 C110.734476,42.8375908 110.27436,36.0061764 109.354129,31.5888709 C108.433898,27.1715654 106.90018,24.2438164 104.752974,22.8056239 C102.605768,21.3674314 99.7939507,20.8537912 96.3175221,21.2647033 L78.8331311,23.113808 L83.7410303,0 L105.519833,0 C115.744623,0 124.333447,1.38682848 131.286304,4.16048543 C138.239161,6.93414239 143.556052,11.9164521 147.236976,19.1074146 C150.917901,26.2983771 152.758363,36.6739086 152.758363,50.2340093 C152.758363,52.6994822 151.480264,55.8840513 148.924067,59.7877166 C146.367869,63.6913819 142.993689,68.0573234 138.801525,72.8855411 C134.609361,77.7137588 130.059329,82.5933405 125.15143,87.5242862 L125.15143,89.3733908 C137.625674,92.0443197 147.083605,97.1293575 153.525222,104.628504 C159.96684,112.127651 163.187649,121.527266 163.187649,132.82735 C163.187649,138.374664 162.676409,143.665158 161.65393,148.698831 C160.631451,153.732505 159.199981,158.303903 157.359519,162.413024 C156.541535,164.262129 154.394329,166.522145 150.917901,169.193074 C147.441472,171.864003 143.504928,174.689024 139.108268,177.668137 C134.711609,180.64725 130.161577,183.420907 125.458174,185.989108 C120.75477,188.557309 116.562606,190.663234 112.881682,192.306882 C109.200758,193.950531 106.64456,194.772355 105.213089,194.772355 C98.2602322,194.772355 91.4607468,194.669627 84.8146333,194.464171 C78.1685198,194.258715 71.6757781,193.950531 65.3364083,193.539619 C58.9970385,193.128707 52.8110405,192.615066 46.7784144,191.998698 C40.7457883,191.38233 35.0710298,190.663234 29.754139,189.841409 C28.1181726,189.430497 26.3288343,188.351853 24.3861242,186.605476 C22.4434141,184.8591 20.7563238,182.958631 19.3248532,180.90407 C17.8933826,178.84951 17.0753993,177.308589 16.8709035,176.281309 L16.8709035,27.7365696 L0,21.5728874 Z M79.1398748,0 L88.9556733,0 L88.9556733,155.941158 C88.9556733,157.173894 88.3933098,159.177091 87.2685829,161.950748 C86.143856,164.724405 84.4567656,168.165794 82.2073118,172.274915 L72.6982571,172.274915 L72.6982571,22.1892556 C72.6982571,20.340151 73.3628685,17.361038 74.6920912,13.2519166 C76.0213139,9.14279515 77.5039084,4.72548963 79.1398748,0 Z" id="Shape"></path>
                </g>
                <g id="Group-6">
                    <g id="Group-3">
                        <mask id="mask-2" fill="white">
                            <use xlink:href="#path-1"></use>
                        </mask>
                        <g id="Clip-2"></g>
                        <path d="M157.041589,27.8927962 C154.943838,28.0270312 152.934261,27.7335566 151.16815,26.5135973 C149.119092,25.0988657 147.95309,23.0879727 147.5188,20.6796389 C146.755503,16.4512363 147.462211,12.542629 150.435122,9.28414009 C152.832927,6.65602933 155.929544,6.12566947 159.182769,7.05873433 C167.64089,9.48680862 174.169712,14.4771922 178.51919,22.1891246 C180.133958,25.0541207 181.102555,28.1165212 181.514473,31.4052787 C182.376472,38.2723203 180.385319,44.2339336 176.105592,49.5362161 C173.048455,53.3224328 169.239866,56.2071693 165.020676,58.5497017 C159.313056,61.7160685 153.146142,63.7480179 146.922639,65.5917751 C141.259764,67.2710287 135.506084,68.5883741 129.680021,69.5727641 C127.044015,70.0188981 124.413272,70.4953008 121.768053,70.863789 C119.255752,71.2138528 116.730292,71.4928511 114.202199,71.7086799 C110.339653,72.0363712 106.470527,72.2995771 102.6014,72.5575189 C100.504965,72.697018 98.4058982,72.8062484 96.3055152,72.8602057 C93.1299362,72.9404834 89.9517252,72.9904926 86.7735141,72.9958833 C84.2006766,72.9983887 81.625207,72.9602239 79.0536855,72.8588896 C76.1413124,72.7443951 73.2249912,72.6167402 70.3231463,72.3561664 C66.3395252,71.9995224 62.3730125,71.4599503 58.3893914,71.0927781 C53.5148184,70.6440121 48.7034149,69.8530784 43.9762372,68.5883741 C37.2210581,66.7814657 30.6474911,64.4705181 24.3029133,61.5041877 C19.8468376,59.4209131 15.5657939,57.0533762 11.6045453,54.135739 C8.12101544,51.5694816 4.97307305,48.6557924 2.66212538,44.9472215 C0.726246091,41.8413921 -0.300256862,38.4460362 0.0774435838,34.7927385 C0.366970058,31.9922278 1.47638286,29.4075461 3.01876935,27.0321129 C5.80875174,22.7379089 9.49100207,19.3254446 13.6351787,16.3946471 C19.283577,12.3991817 25.5478771,9.6513123 32.160925,7.75359787 C36.7262311,6.44414859 41.3652348,5.35974034 46.0121347,4.37140224 C49.289048,3.67259062 52.6370268,3.30278635 55.9521049,2.78953487 C58.2696328,2.43157487 60.5832125,2.04466222 62.9073205,1.7353953 C65.1182499,1.44060471 67.3383915,1.21951177 69.5559011,0.983942499 C71.6931329,0.758901467 73.8329968,0.548336758 75.9728606,0.346984256 C76.8138034,0.268022491 77.6573783,0.20090499 78.5009531,0.179848519 C81.4541232,0.10878293 84.4112413,-0.0688810426 87.3604632,0.028505135 C93.2273224,0.220645431 99.0257481,0.991838675 104.5636,3.04221252 C106.553436,3.779189 108.495896,4.72804622 110.314648,5.8229827 C112.755883,7.2943036 113.549449,9.68289701 113.169116,12.4202382 C112.987504,13.7270554 112.164986,14.7022332 110.943711,15.2970785 C107.790504,16.8315689 104.478058,17.864652 100.994528,18.2305081 C98.0150375,18.5450392 95.0223866,18.7345474 92.0310517,18.9214236 C90.2859966,19.0319701 88.5343615,19.0214418 86.7866744,19.0819792 C83.729538,19.1872615 80.6618735,19.1872615 77.6165814,19.4438873 C73.085492,19.8268518 68.5609829,20.3322071 64.0470019,20.8967837 C55.6612624,21.9482913 47.4097579,23.6946623 39.3306533,26.1661656 C35.9892546,27.1887204 32.697865,28.4244721 29.4814891,29.7905106 C27.0718392,30.8143815 24.7766839,32.1383071 22.7960596,33.9123148 C22.5512781,34.1307757 22.3196569,34.368977 22.1117243,34.6216546 C20.8285956,36.1798335 21.0773251,37.8196061 22.6999894,39.3027713 C26.1940476,42.4967747 30.285583,44.6708553 34.6455885,46.3816936 C41.3928714,49.0282288 48.4375769,50.6193083 55.4980748,52.1314262 C58.727611,52.8223416 61.9676754,53.4711441 65.2195842,54.0436169 C67.9279727,54.5200196 70.6574178,54.8924559 73.3855468,55.2425197 C75.9202194,55.568895 78.4627883,55.8321009 81.0066732,56.0755663 C84.17304,56.3795691 87.3407228,56.6717277 90.5136697,56.8941367 C91.95867,56.9954709 93.4168307,56.9244053 94.8697271,56.9244053 C98.8665085,56.9230893 102.864606,56.9691503 106.860071,56.8915046 C108.815691,56.8546558 110.767363,56.6059262 112.716402,56.4151019 C115.456375,56.147948 118.209509,55.9531756 120.928426,55.5359943 C125.23579,54.8766635 129.543154,54.1712718 133.808406,53.2816359 C141.680894,51.6392312 149.338869,49.307227 156.527022,45.6157645 C159.451239,44.1154909 162.196477,42.3572756 164.127092,39.6212504 C165.897151,37.1128983 166.107716,34.3663449 164.779842,31.6158434 C163.770448,29.5233566 161.775347,28.6574093 159.644696,28.1494219 C158.805069,27.9493854 157.911485,27.9717579 157.041589,27.8927962" id="Fill-1" fill="#018B45" mask="url(#mask-2)"></path>
                    </g>
                    <path d="M140.260898,10.8832474 C140.059546,13.9877609 138.46715,16.2118506 135.828511,17.7226524 C129.901114,21.1140602 123.830271,16.947511 122.726122,10.9806336 C122.11022,7.65107918 124.115849,4.26098737 126.799233,2.66859177 C132.74637,-0.862315184 139.097528,3.0949853 140.033225,9.07633904 C140.125347,9.66592023 140.183252,10.2607655 140.260898,10.8832474" id="Fill-4" fill="#018B45"></path>
                </g>
            </g>
        </g>
    </g>
</svg>