<?xml version="1.0" encoding="UTF-8"?>
<svg width="838px" height="348px" viewBox="0 0 838 348" version="1.1" xmlns="http://www.w3.org/2000/svg" xmlns:xlink="http://www.w3.org/1999/xlink">
    <title>bendita_logo_preto@1x</title>
    <g id="Page-1" stroke="none" stroke-width="1" fill="none" fill-rule="evenodd">
        <g id="Artboard" transform="translate(-1863, -273)" fill="#000000">
            <g id="bendita_logo_preto" transform="translate(1863, 273)">
                <path d="M753.684182,0.0176458797 C756.001307,0.0479484118 758.295995,0.348421585 760.599198,0.530762648 L763.015147,0.716193514 C763.820261,0.779330688 764.624634,0.847379272 765.42665,0.931092838 C766.952693,1.08990915 768.469269,1.30806169 769.98716,1.51441394 C771.449679,1.71486223 772.910883,1.92711082 774.370141,2.14657349 C774.943578,2.23295108 775.516255,2.32906781 776.079205,2.46125493 C778.049408,2.92608699 780.044739,3.30813769 781.976751,3.90418848 C785.820418,5.08866222 789.496479,6.71453117 792.729853,9.29620134 C793.891603,10.2240277 794.977236,11.3094278 795.950114,12.4874198 C797.255621,14.0698682 797.276531,16.0802381 796.446584,18.1568178 C796.050338,19.148178 795.299814,19.7668743 794.365615,20.0174531 C791.953891,20.6633733 789.54264,20.8885762 787.159042,20.561121 C785.119992,20.2823078 783.098634,19.9032698 781.078703,19.5224027 C779.900014,19.3014132 778.742539,18.9844503 777.572669,18.7238348 C775.526406,18.2674743 773.49541,17.7268116 771.425024,17.3910556 C768.34426,16.8923701 765.242002,16.4906885 762.134207,16.1372387 C756.360209,15.4827237 750.528325,15.3960145 744.657429,15.9075411 C742.229233,16.1193966 739.789118,16.5070204 737.37115,17.0098926 C735.559556,17.3869954 733.760391,18.0192502 732.074407,19.059399 C731.866205,19.187334 731.662547,19.3330472 731.471515,19.4942718 C730.292904,20.4883357 730.11125,21.816279 730.872309,23.2637332 C732.511016,26.3807697 734.760705,28.8044076 737.285979,30.9125972 C741.194163,34.1742782 745.52218,36.6618516 749.877328,39.0903733 C751.86957,40.200621 753.877676,41.2797456 755.909745,42.3011839 C757.602259,43.1515967 759.330671,43.9243045 761.062937,44.6792604 C762.672126,45.38157 764.299884,46.0358034 765.932683,46.6748099 C767.96482,47.470933 770.00033,48.2580128 772.054056,48.9913995 C772.98934,49.3254294 773.969748,49.5267725 774.931661,49.7828393 C777.578073,50.4862242 780.215349,51.2269421 782.87701,51.8703213 C784.179543,52.1861345 785.524211,52.3353282 786.854907,52.5294035 C788.725375,52.8031038 790.589268,53.1358055 792.477482,53.2883082 C795.468496,53.5311408 798.469238,53.737903 801.481012,53.7929614 C807.040004,53.8942865 812.602622,53.4177794 818.14131,51.7938763 C820.394201,51.134393 822.583074,50.241371 824.439132,48.4390525 C826.140806,46.7867275 826.860301,44.6730128 826.562081,42.2850633 C826.33574,40.4685356 825.197744,39.4387844 823.894401,38.6654613 C823.380762,38.3608322 822.784425,38.2208617 822.225174,38.0057115 C820.807973,37.7411113 819.539484,37.1571121 818.627863,35.8904925 C817.57005,34.4214787 817.222791,32.6412457 817.443916,30.6787379 C817.831624,27.2329484 819.12503,24.2966724 821.781503,22.2689127 C823.92408,20.6334423 826.08626,20.763883 828.043042,22.0679329 C833.130055,25.4600651 836.39857,30.5187109 837.64941,37.3245013 C838.113391,39.8526755 838.107871,42.4215522 837.685985,45.0695767 C836.806329,50.5990801 834.22893,54.9166869 830.275597,58.3146204 C827.451902,60.7407993 824.321092,62.3285888 821.032954,63.4194116 C816.585379,64.8930498 812.073316,65.3973772 807.563534,65.7443577 C803.45967,66.0613238 799.372122,66.0788754 795.306976,65.8229328 C793.467539,65.7077154 791.625195,65.6171291 789.796058,65.4394838 C788.058814,65.2708366 786.327866,65.0442186 784.608518,64.7676687 C781.982047,64.3435266 779.364839,63.8677262 776.748743,63.3878035 C775.331301,63.1275576 773.91851,62.8431444 772.516522,62.5152148 C770.397123,62.0183982 768.282376,61.4974143 766.176933,60.9419315 C764.473134,60.4900003 762.776063,60.0061979 761.094948,59.4736235 C759.190947,58.8706696 757.287111,58.256714 755.420932,57.541221 L753.507202,56.7831424 L749.699312,55.211305 C749.063784,54.9516525 748.4268,54.6959959 747.786832,54.4485888 C744.654325,53.2380376 741.635907,51.7706683 738.773315,49.9471338 C734.682569,47.3415727 730.818518,44.3733068 727.244493,40.9321692 C724.734275,38.5153929 722.399977,35.9068593 720.39359,32.9239048 C718.62927,30.3003117 717.160511,27.4637906 716.413781,24.1523144 C715.788068,21.3789492 715.825573,18.5391295 716.847232,15.7448004 C717.6304,13.6027485 718.910803,11.7742136 720.433669,10.1858511 C723.187781,7.31478266 726.346405,5.29146289 729.709123,3.72674886 C734.2926,1.59340614 739.020345,0.545605713 743.799428,0.225026912 C747.098525,0.00421283061 750.398884,-0.0273827414 753.684182,0.0176458797 Z M814.348963,20.3847458 C814.276393,20.9251002 814.17721,21.463367 814.086054,22.0300053 C813.195264,24.7398991 811.483984,26.3956122 809.167794,27.2131911 C803.965323,29.0476321 800.461941,24.1598246 801.06906,18.6572545 C801.407999,15.5868298 803.704022,12.9799255 806.07286,12.098907 C811.323281,10.1448082 815.084367,14.902584 814.348963,20.3847458 Z" id="Combined-Shape"></path>
                <g id="Bendita" transform="translate(0, 10)" fill-rule="nonzero">
                    <path d="M0,39.1306818 L0,23.9744318 C3.1302682,23.6070076 6.85897002,23.1936553 11.1861055,22.734375 C15.5132409,22.2750947 19.8403764,21.8158144 24.1675118,21.3565341 C28.4946473,20.8972538 32.2693825,20.5298295 35.4917174,20.2542614 C38.7140523,19.9786932 40.7855533,19.9327652 41.7062204,20.1164773 C43.3634212,20.6676136 44.9745887,21.7239583 46.5397228,23.2855114 C48.1048569,24.8470644 49.5318909,26.5464015 50.8208249,28.3835227 C52.1097588,30.2206439 52.8462925,31.5984848 53.030426,32.5170455 L53.030426,166.167614 L97.4986477,176.088068 C98.6034483,176.27178 99.7542822,175.399148 100.951149,173.47017 C102.148017,171.541193 103.252817,168.785511 104.265551,165.203125 C105.278285,161.620739 106.106885,157.579072 106.751352,153.078125 C107.395819,148.577178 107.718053,143.938447 107.718053,139.161932 C107.718053,131.446023 106.429119,126.256155 103.851251,123.59233 C101.273383,120.928504 97.406581,118.861742 92.2508452,117.392045 L70.9834348,111.605114 L70.9834348,95.6221591 L91.974645,95.6221591 C92.8953121,95.6221591 93.8159793,94.7495265 94.7366464,93.0042614 C95.6573135,91.2589962 96.4859139,88.9166667 97.2224476,85.9772727 C97.9589813,83.0378788 98.5574149,79.8688447 99.0177485,76.4701705 C99.478082,73.0714962 99.7082488,69.71875 99.7082488,66.4119318 C99.7082488,58.1448864 99.2939486,52.0364583 98.4653482,48.0866477 C97.6367478,44.1368371 96.2557471,41.5189394 94.3223462,40.2329545 C92.3889452,38.9469697 89.8571107,38.4876894 86.7268425,38.8551136 L70.9834348,40.5085227 L75.4026369,19.8409091 L95.0128465,19.8409091 C104.219518,19.8409091 111.953121,21.0809659 118.213658,23.5610795 C124.474194,26.0411932 129.261663,30.4962121 132.576065,36.9261364 C135.890467,43.3560606 137.547667,52.6335227 137.547667,64.7585227 C137.547667,66.9630682 136.396833,69.8106061 134.095166,73.3011364 C131.793498,76.7916667 128.755296,80.6955492 124.980561,85.0127841 C121.205826,89.3300189 117.108857,93.6931818 112.689655,98.1022727 L112.689655,99.7556818 C123.921794,102.143939 132.437965,106.690814 138.238168,113.396307 C144.038371,120.101799 146.938472,128.506629 146.938472,138.610795 C146.938472,143.571023 146.478138,148.30161 145.557471,152.802557 C144.636804,157.303504 143.34787,161.391098 141.690669,165.065341 C140.954136,166.71875 139.020735,168.739583 135.890467,171.127841 C132.760198,173.516098 129.21563,176.04214 125.256761,178.705966 C121.297893,181.369792 117.200924,183.849905 112.965855,186.146307 C108.730787,188.442708 104.956051,190.325758 101.64165,191.795455 C98.3272481,193.265152 96.0255803,194 94.7366464,194 C88.47611,194 82.3536737,193.908144 76.3693374,193.724432 C70.3850011,193.54072 64.5387649,193.265152 58.8306288,192.897727 C53.1224927,192.530303 47.5524566,192.071023 42.1205206,191.519886 C36.6885846,190.96875 31.5788821,190.325758 26.7914131,189.590909 C25.3183457,189.223485 23.7071783,188.258996 21.9579108,186.697443 C20.2086432,185.13589 18.6895425,183.436553 17.4006085,181.599432 C16.1116746,179.762311 15.3751409,178.38447 15.1910074,177.465909 L15.1910074,44.6420455 L0,39.1306818 Z M71.2596349,19.8409091 L80.0980392,19.8409091 L80.0980392,159.278409 C80.0980392,160.380682 79.5916723,162.171875 78.5789385,164.651989 C77.5662046,167.132102 76.0471039,170.20928 74.0216362,173.883523 L65.459432,173.883523 L65.459432,39.6818182 C65.459432,38.0284091 66.0578657,35.3645833 67.2547329,31.6903409 C68.4516002,28.0160985 69.7865675,24.0662879 71.2596349,19.8409091 Z" id="Shape"></path>
                    <path d="M199.140297,130.894886 C199.140297,139.89678 200.245098,147.107481 202.454699,152.526989 C204.6643,157.946496 207.426302,161.850379 210.740703,164.238636 C214.055105,166.626894 217.185373,167.821023 220.131508,167.821023 C220.499775,167.821023 222.249042,167.729167 225.37931,167.545455 C228.509579,167.361742 232.284314,167.17803 236.703516,166.994318 C241.122718,166.810606 245.449854,166.626894 249.684922,166.443182 C253.919991,166.25947 257.326459,166.167614 259.904327,166.167614 L259.904327,181.323864 C257.142326,182.058712 253.459657,183.160985 248.856322,184.630682 C244.252986,186.100379 239.511551,187.47822 234.632015,188.764205 C229.752479,190.050189 225.333277,191.19839 221.374408,192.208807 C217.41554,193.219223 214.699572,193.724432 213.226504,193.724432 C203.2833,193.724432 194.444895,191.473958 186.711291,186.973011 C178.977688,182.472064 172.947318,175.8125 168.620183,166.994318 C164.293047,158.176136 162.129479,147.428977 162.129479,134.752841 C162.129479,125.934659 162.81998,117.575758 164.20098,109.676136 C165.581981,101.776515 167.193149,95.8058712 169.034483,91.7642045 C170.691684,89.5596591 173.683852,86.8039773 178.010987,83.4971591 C182.338123,80.1903409 187.079558,76.9294508 192.235294,73.7144886 C197.39103,70.4995265 202.178499,67.7438447 206.597701,65.4474432 C211.016903,63.1510417 214.239238,62.0028409 216.264706,62.0028409 C226.944444,62.0028409 235.828882,63.8399621 242.918019,67.5142045 C250.007156,71.188447 255.393058,77.8020833 259.075727,87.3551136 C262.758395,96.9081439 264.415596,110.778409 264.047329,128.965909 L184.50169,137.232955 L184.50169,122.352273 L228.969912,114.636364 C228.969912,104.532197 228.003212,96.5407197 226.069811,90.6619318 C224.13641,84.7831439 220.683908,81.5681818 215.712306,81.0170455 C214.607505,80.8333333 213.134438,80.7414773 211.293103,80.7414773 C209.451769,80.7414773 207.886635,81.0170455 206.597701,81.5681818 C204.572233,82.8541667 202.822966,87.860322 201.349899,96.5866477 C199.876831,105.312973 199.140297,116.749053 199.140297,130.894886 Z" id="Path"></path>
                    <path d="M299.953347,193.724432 C299.216813,193.724432 297.927879,192.989583 296.086545,191.519886 C294.245211,190.050189 292.495943,188.442708 290.838742,186.697443 C289.181542,184.952178 288.352941,183.712121 288.352941,182.977273 L288.352941,86.2528409 L277.581136,82.1193182 L277.581136,67.5142045 C277.581136,67.5142045 279.192303,67.2386364 282.414638,66.6875 C285.636973,66.1363636 289.457742,65.5392992 293.876944,64.8963068 C298.296146,64.2533144 302.393115,63.65625 306.16785,63.1051136 C309.942585,62.5539773 312.19822,62.2784091 312.934753,62.2784091 C313.671287,62.2784091 314.822121,63.0132576 316.387255,64.4829545 C317.952389,65.9526515 319.425456,67.5142045 320.806457,69.1676136 C322.187458,70.8210227 322.877958,72.0151515 322.877958,72.75 L322.877958,80.7414773 C325.087559,78.9043561 327.665427,76.9294508 330.611562,74.8167614 C333.557697,72.704072 336.411765,70.6832386 339.173766,68.7542614 C341.935767,66.8252841 344.283469,65.217803 346.21687,63.9318182 C348.15027,62.6458333 349.393171,62.0028409 349.945571,62.0028409 C358.599842,62.0028409 366.057246,63.3347538 372.317782,65.9985795 C378.578319,68.6624053 383.365788,73.1174242 386.680189,79.3636364 C389.994591,85.6098485 391.651792,94.2443182 391.651792,105.267045 L391.651792,169.474432 L402.423597,173.883523 L402.423597,188.213068 C402.423597,188.213068 400.81243,188.488636 397.590095,189.039773 C394.36776,189.590909 390.593025,190.233902 386.265889,190.96875 C381.938754,191.703598 377.979885,192.346591 374.389283,192.897727 C370.798682,193.448864 368.635114,193.724432 367.89858,193.724432 C367.162046,193.724432 365.827079,192.989583 363.893678,191.519886 C361.960277,190.050189 360.118943,188.442708 358.369675,186.697443 C356.620408,184.952178 355.745774,183.712121 355.745774,182.977273 L355.745774,105.818182 C355.745774,99.9393939 354.963207,95.8058712 353.398073,93.4176136 C351.832939,91.0293561 350.129705,89.5596591 348.288371,89.0085227 C346.447036,88.4573864 344.973969,88.1818182 343.869168,88.1818182 C343.132635,88.1818182 341.705601,88.5951705 339.588066,89.421875 C337.470532,90.2485795 335.076797,91.3049242 332.406863,92.5909091 C329.736928,93.8768939 327.02096,95.0710227 324.258959,96.1732955 L324.258959,169.75 L334.754564,173.883523 L334.754564,188.213068 C334.754564,188.213068 333.18943,188.488636 330.059162,189.039773 C326.928893,189.590909 323.200192,190.187973 318.873056,190.830966 C314.545921,191.473958 310.541019,192.116951 306.85835,192.759943 C303.175682,193.402936 300.874014,193.724432 299.953347,193.724432 Z" id="Path"></path>
                    <path d="M470.36883,62.0028409 C471.657764,62.0028409 473.913399,62.2324811 477.135734,62.6917614 C480.358069,63.1510417 484.08677,63.65625 488.321839,64.2073864 L488.321839,33.8948864 L477.550034,30.0369318 L477.550034,15.4318182 C477.550034,15.4318182 478.700868,15.2481061 481.002535,14.8806818 C483.304203,14.5132576 486.204305,14.0539773 489.70284,13.5028409 C493.201375,12.9517045 496.745943,12.4464962 500.336545,11.9872159 C503.927147,11.5279356 507.057415,11.1145833 509.72735,10.7471591 C512.397284,10.3797348 514.100518,10.1960227 514.837052,10.1960227 C515.573586,10.1960227 516.72442,10.9308712 518.289554,12.4005682 C519.854688,13.8702652 521.373789,15.4318182 522.846856,17.0852273 C524.319923,18.7386364 525.056457,19.9327652 525.056457,20.6676136 L523.675456,71.3721591 L523.675456,170.025568 L534.447262,173.883523 L534.447262,188.488636 C534.447262,188.488636 532.836094,188.718277 529.613759,189.177557 C526.391424,189.636837 522.570656,190.233902 518.151454,190.96875 C513.732252,191.703598 509.681316,192.346591 505.998648,192.897727 C502.315979,193.448864 500.106378,193.724432 499.369844,193.724432 C498.817444,193.724432 497.712644,192.989583 496.055443,191.519886 C494.398242,190.050189 492.833108,188.488636 491.360041,186.835227 C489.886973,185.181818 489.150439,183.987689 489.150439,183.252841 L489.150439,174.985795 C486.388438,177.006629 483.028003,179.486742 479.069135,182.426136 C475.110266,185.36553 471.611731,187.983428 468.573529,190.27983 C465.535328,192.576231 463.740027,193.724432 463.187627,193.724432 C454.165089,193.724432 446.155285,191.42803 439.158215,186.835227 C432.161145,182.242424 426.683176,175.536932 422.724307,166.71875 C418.765438,157.900568 416.786004,147.153409 416.786004,134.477273 C416.786004,125.291667 417.476504,116.794981 418.857505,108.987216 C420.238506,101.179451 421.849673,95.1628788 423.691007,90.9375 C425.348208,88.9166667 428.340376,86.344697 432.667512,83.2215909 C436.994647,80.0984848 441.644016,76.8835227 446.615619,73.5767045 C451.587221,70.2698864 456.282623,67.5142045 460.701826,65.3096591 C465.121028,63.1051136 468.343363,62.0028409 470.36883,62.0028409 Z M463.187627,80.7414773 C461.530426,81.2926136 460.057359,83.359375 458.768425,86.9417614 C457.479491,90.5241477 456.51279,95.8517992 455.868323,102.924716 C455.223856,109.997633 454.901623,119.229167 454.901623,130.619318 C454.901623,138.518939 455.638156,145.224432 457.111224,150.735795 C458.584291,156.247159 460.379592,160.472538 462.497126,163.411932 C464.614661,166.351326 466.686162,167.821023 468.711629,167.821023 C469.26403,167.821023 470.552964,167.361742 472.578431,166.443182 C474.603899,165.524621 476.767467,164.560133 479.069135,163.549716 C481.370802,162.539299 483.39627,161.574811 485.145538,160.65625 C486.894805,159.737689 487.769439,159.278409 487.769439,159.278409 L487.769439,88.1818182 C485.743971,87.2632576 483.028003,86.1609848 479.621535,84.875 C476.215066,83.5890152 472.946698,82.4408144 469.81643,81.4303977 C466.686162,80.4199811 464.476561,80.1903409 463.187627,80.7414773 Z" id="Shape"></path>
                    <path d="M569.524679,193.724432 C568.788145,193.724432 567.361111,192.943655 565.243577,191.382102 C563.126042,189.820549 561.192641,188.121212 559.443374,186.284091 C557.694106,184.44697 556.819473,183.252841 556.819473,182.701705 L556.819473,85.4261364 L546.047667,82.1193182 L546.047667,67.5142045 C546.047667,67.5142045 547.658835,67.2386364 550.88117,66.6875 C554.103505,66.1363636 557.924273,65.5392992 562.343475,64.8963068 C566.762677,64.2533144 570.859646,63.610322 574.634381,62.9673295 C578.409117,62.3243371 580.664751,62.0028409 581.401285,62.0028409 C582.137818,62.0028409 583.380719,62.7836174 585.129986,64.3451705 C586.879254,65.9067235 588.536455,67.6060606 590.101589,69.4431818 C591.666723,71.280303 592.44929,72.5662879 592.44929,73.3011364 L592.44929,170.301136 L603.221095,173.883523 L603.221095,188.213068 C603.221095,188.213068 601.701995,188.488636 598.663793,189.039773 C595.625592,189.590909 591.988957,190.187973 587.753888,190.830966 C583.518819,191.473958 579.652017,192.116951 576.153482,192.759943 C572.654947,193.402936 570.445346,193.724432 569.524679,193.724432 Z M554.057471,17.6363636 C554.057471,17.2689394 555.070205,16.1666667 557.095673,14.3295455 C559.12114,12.4924242 561.560908,10.4715909 564.414976,8.26704545 C567.269044,6.0625 569.800879,4.13352273 572.01048,2.48011364 C574.220081,0.826704545 575.601082,0 576.153482,0 C577.074149,0 578.685317,0.918560606 580.986984,2.75568182 C583.288652,4.59280303 585.636353,6.88920455 588.030088,9.64488636 C590.423822,12.4005682 592.495323,14.9266098 594.244591,17.2230114 C595.993858,19.5194129 596.776426,21.1268939 596.592292,22.0454545 L594.935091,28.9346591 C594.750958,29.6695076 593.646157,30.9095644 591.62069,32.6548295 C589.595222,34.4000947 587.247521,36.329072 584.577586,38.4417614 C581.907652,40.5544508 579.42185,42.3456439 577.120183,43.8153409 C574.818515,45.2850379 573.299414,46.0198864 572.56288,46.0198864 C571.642213,46.0198864 570.077079,45.0553977 567.867478,43.1264205 C565.657877,41.1974432 563.356209,38.9469697 560.962475,36.375 C558.56874,33.8030303 556.589306,31.3229167 555.024172,28.9346591 C553.459038,26.5464015 552.768537,24.9848485 552.952671,24.25 L554.057471,17.6363636 Z" id="Shape"></path>
                    <path d="M650.727519,193.724432 C649.254451,193.724432 647.275017,192.805871 644.789216,190.96875 C642.303414,189.131629 639.863647,186.881155 637.469912,184.21733 C635.076178,181.553504 633.05071,178.889678 631.393509,176.225852 C629.736308,173.562027 628.907708,171.219697 628.907708,169.198864 L628.907708,84.3238636 L609.849899,84.3238636 L609.849899,71.3721591 L628.907708,63.3806818 L651.279919,36.9261364 C652.93712,36.7424242 654.962587,37.1098485 657.356322,38.0284091 C659.750056,38.9469697 662.235858,39.9573864 664.813725,41.0596591 L664.813725,65.3096591 L692.433739,65.3096591 L692.433739,85.1505682 L664.813725,85.1505682 L664.813725,157.349432 C664.813725,162.125947 665.320092,165.340909 666.332826,166.994318 C667.34556,168.647727 668.956728,169.474432 671.166329,169.474432 L695.19574,170.576705 L695.19574,188.213068 C691.513072,188.764205 687.37007,189.361269 682.766734,190.004261 C678.163399,190.647254 673.606096,191.244318 669.094828,191.795455 C664.583559,192.346591 660.670723,192.805871 657.356322,193.173295 C654.04192,193.54072 651.832319,193.724432 650.727519,193.724432 Z" id="Path"></path>
                    <path d="M746.568966,193.724432 C737.178161,193.724432 729.49059,192.025095 723.506254,188.62642 C717.521918,185.227746 713.148749,180.589015 710.386748,174.710227 C707.624746,168.831439 706.243746,162.309659 706.243746,155.144886 C706.243746,150.919508 706.658046,146.556345 707.486646,142.055398 C708.315247,137.554451 709.742281,133.099432 711.767748,128.690341 L742.702164,141.366477 C742.149763,142.836174 741.735463,144.673295 741.459263,146.877841 C741.183063,149.082386 741.044963,151.195076 741.044963,153.215909 C741.044963,157.257576 741.781497,160.748106 743.254564,163.6875 C744.727631,166.626894 747.581699,168.096591 751.816768,168.096591 C753.105702,168.096591 754.99307,167.591383 757.478871,166.580966 C759.964672,165.570549 762.772707,164.192708 765.902975,162.447443 C769.033243,160.702178 772.163511,158.910985 775.29378,157.073864 L775.29378,172.505682 C771.795245,175.077652 767.928443,178.017045 763.693374,181.323864 C759.458305,184.630682 755.729603,187.524148 752.507268,190.004261 C749.284934,192.484375 747.305499,193.724432 746.568966,193.724432 Z M711.767748,128.690341 L772.531778,120.974432 L772.531778,136.40625 L739.387762,143.846591 L711.767748,128.690341 Z M714.25355,86.5284091 L720.329953,63.3806818 C726.222222,63.0132576 732.206558,62.6917614 738.282961,62.4161932 C744.359364,62.140625 750.251634,62.0487689 755.95977,62.140625 C761.667906,62.2324811 766.915709,62.6458333 771.703178,63.3806818 C774.465179,63.7481061 777.779581,65.4015152 781.646383,68.3409091 C785.513185,71.280303 789.333953,74.8626894 793.108688,79.0880682 C796.883423,83.313447 800.013692,87.5388258 802.499493,91.7642045 C804.985294,95.9895833 806.228195,99.4801136 806.228195,102.235795 L806.228195,169.75 L817,173.883523 L817,188.488636 C812.764931,189.223485 808.115562,190.004261 803.051893,190.830966 C797.988224,191.65767 793.430922,192.346591 789.379986,192.897727 C785.329051,193.448864 782.751183,193.724432 781.646383,193.724432 C781.093982,193.724432 779.989182,192.989583 778.331981,191.519886 C776.67478,190.050189 775.15568,188.488636 773.774679,186.835227 C772.393678,185.181818 771.703178,183.987689 771.703178,183.252841 L771.703178,173.332386 L770.322177,170.852273 L770.322177,107.471591 C770.322177,101.960227 769.447543,98.0563447 767.698276,95.7599432 C765.949008,93.4635417 762.68064,92.1316288 757.893171,91.7642045 C754.762903,91.5804924 750.850068,91.4886364 746.154665,91.4886364 C741.459263,91.4886364 736.671794,91.5345644 731.792258,91.6264205 C726.912723,91.7182765 722.447487,91.8560606 718.396552,92.0397727 L714.25355,86.5284091 Z" id="Shape"></path>
                </g>
                <g id="•izabel•-copy" transform="translate(154.5099, 223.516)" fill-rule="nonzero">
                    <path d="M1.25164286,68.853 C1.36964286,68.499 2.04814286,67.732 3.28714286,66.552 C4.52614286,65.372 6.08964286,63.9855 7.97764286,62.3925 C9.86564286,60.7995 11.7831429,59.2655 13.7301429,57.7905 C15.6771429,56.3155 17.3881429,55.0765 18.8631429,54.0735 C20.3381429,53.0705 21.2526429,52.569 21.6066429,52.569 C22.3146429,52.569 23.4356429,53.159 24.9696429,54.339 C26.5036429,55.519 28.1851429,56.994 30.0141429,58.764 C31.8431429,60.534 33.6131429,62.3925 35.3241429,64.3395 C37.0351429,66.2865 38.3921429,68.0565 39.3951429,69.6495 C40.3981429,71.2425 40.8406429,72.334 40.7226429,72.924 L39.1296429,79.296 C39.0116429,80.004 38.0086429,81.2135 36.1206429,82.9245 C34.2326429,84.6355 32.0496429,86.435 29.5716429,88.323 C27.0936429,90.211 24.7926429,91.8335 22.6686429,93.1905 C20.5446429,94.5475 19.1286429,95.226 18.4206429,95.226 C17.4766429,95.226 16.0016429,94.341 13.9956429,92.571 C11.9896429,90.801 9.89514286,88.677 7.71214286,86.199 C5.52914286,83.721 3.67064286,81.42 2.13664286,79.296 C0.602642857,77.172 -0.105357143,75.756 0.0126428571,75.048 L1.25164286,68.853 Z" id="Path"></path>
                    <path d="M78.2466429,124.431 C77.7746429,124.431 76.8601429,123.9295 75.5031429,122.9265 C74.1461429,121.9235 72.9071429,120.832 71.7861429,119.652 C70.6651429,118.472 70.1046429,117.705 70.1046429,117.351 L70.1046429,54.87 L63.2016429,52.746 L63.2016429,43.365 C63.2016429,43.365 64.2341429,43.188 66.2991429,42.834 C68.3641429,42.48 70.8126429,42.0965 73.6446429,41.6835 C76.4766429,41.2705 79.1021429,40.8575 81.5211429,40.4445 C83.9401429,40.0315 85.3856429,39.825 85.8576429,39.825 C86.3296429,39.825 87.1261429,40.3265 88.2471429,41.3295 C89.3681429,42.3325 90.4301429,43.424 91.4331429,44.604 C92.4361429,45.784 92.9376429,46.61 92.9376429,47.082 L92.9376429,109.386 L99.8406429,111.687 L99.8406429,120.891 C99.8406429,120.891 98.8671429,121.068 96.9201429,121.422 C94.9731429,121.776 92.6426429,122.1595 89.9286429,122.5725 C87.2146429,122.9855 84.7366429,123.3985 82.4946429,123.8115 C80.2526429,124.2245 78.8366429,124.431 78.2466429,124.431 Z M68.3346429,11.328 C68.3346429,11.092 68.9836429,10.384 70.2816429,9.204 C71.5796429,8.024 73.1431429,6.726 74.9721429,5.31 C76.8011429,3.894 78.4236429,2.655 79.8396429,1.593 C81.2556429,0.531 82.1406429,0 82.4946429,0 C83.0846429,0 84.1171429,0.59 85.5921429,1.77 C87.0671429,2.95 88.5716429,4.425 90.1056429,6.195 C91.6396429,7.965 92.9671429,9.5875 94.0881429,11.0625 C95.2091429,12.5375 95.7106429,13.57 95.5926429,14.16 L94.5306429,18.585 C94.4126429,19.057 93.7046429,19.8535 92.4066429,20.9745 C91.1086429,22.0955 89.6041429,23.3345 87.8931429,24.6915 C86.1821429,26.0485 84.5891429,27.199 83.1141429,28.143 C81.6391429,29.087 80.6656429,29.559 80.1936429,29.559 C79.6036429,29.559 78.6006429,28.9395 77.1846429,27.7005 C75.7686429,26.4615 74.2936429,25.016 72.7596429,23.364 C71.2256429,21.712 69.9571429,20.119 68.9541429,18.585 C67.9511429,17.051 67.5086429,16.048 67.6266429,15.576 L68.3346429,11.328 Z" id="Shape"></path>
                    <path d="M112.230643,122.484 C111.522643,121.54 110.637643,120.065 109.575643,118.059 C108.513643,116.053 107.864643,114.755 107.628643,114.165 C113.528643,104.607 119.045143,95.3145 124.178143,86.2875 C129.311143,77.2605 134.945643,67.496 141.081643,56.994 L140.550643,54.87 L124.443643,53.808 L122.496643,65.667 L110.814643,65.667 L109.221643,41.949 L164.799643,41.949 C165.271643,42.775 166.038643,44.0435 167.100643,45.7545 C168.162643,47.4655 168.929643,48.911 169.401643,50.091 C164.091643,59.649 158.781643,69.089 153.471643,78.411 C148.161643,87.733 142.851643,97.114 137.541643,106.554 L137.541643,109.032 L157.011643,110.094 L159.312643,94.872 L171.171643,94.872 L171.702643,122.484 L112.230643,122.484 Z" id="Path"></path>
                    <path d="M207.102643,124.431 C201.084643,124.431 196.158143,123.3395 192.323143,121.1565 C188.488143,118.9735 185.685643,115.994 183.915643,112.218 C182.145643,108.442 181.260643,104.253 181.260643,99.651 C181.260643,96.937 181.526143,94.1345 182.057143,91.2435 C182.588143,88.3525 183.502643,85.491 184.800643,82.659 L204.624643,90.801 C204.270643,91.745 204.005143,92.925 203.828143,94.341 C203.651143,95.757 203.562643,97.114 203.562643,98.412 C203.562643,101.008 204.034643,103.25 204.978643,105.138 C205.922643,107.026 207.751643,107.97 210.465643,107.97 C211.291643,107.97 212.501143,107.6455 214.094143,106.9965 C215.687143,106.3475 217.486643,105.4625 219.492643,104.3415 C221.498643,103.2205 223.504643,102.07 225.510643,100.89 L225.510643,110.802 C223.268643,112.454 220.790643,114.342 218.076643,116.466 C215.362643,118.59 212.973143,120.4485 210.908143,122.0415 C208.843143,123.6345 207.574643,124.431 207.102643,124.431 Z M184.800643,82.659 L223.740643,77.703 L223.740643,87.615 L202.500643,92.394 L184.800643,82.659 Z M186.393643,55.578 L190.287643,40.71 C194.063643,40.474 197.898643,40.2675 201.792643,40.0905 C205.686643,39.9135 209.462643,39.8545 213.120643,39.9135 C216.778643,39.9725 220.141643,40.238 223.209643,40.71 C224.979643,40.946 227.103643,42.008 229.581643,43.896 C232.059643,45.784 234.508143,48.085 236.927143,50.799 C239.346143,53.513 241.352143,56.227 242.945143,58.941 C244.538143,61.655 245.334643,63.897 245.334643,65.667 L245.334643,109.032 L252.237643,111.687 L252.237643,121.068 C249.523643,121.54 246.544143,122.0415 243.299143,122.5725 C240.054143,123.1035 237.133643,123.546 234.537643,123.9 C231.941643,124.254 230.289643,124.431 229.581643,124.431 C229.227643,124.431 228.519643,123.959 227.457643,123.015 C226.395643,122.071 225.422143,121.068 224.537143,120.006 C223.652143,118.944 223.209643,118.177 223.209643,117.705 L223.209643,111.333 L222.324643,109.74 L222.324643,69.03 C222.324643,65.49 221.764143,62.9825 220.643143,61.5075 C219.522143,60.0325 217.427643,59.177 214.359643,58.941 C212.353643,58.823 209.846143,58.764 206.837143,58.764 C203.828143,58.764 200.760143,58.7935 197.633143,58.8525 C194.506143,58.9115 191.644643,59 189.048643,59.118 L186.393643,55.578 Z" id="Shape"></path>
                    <path d="M303.213643,39.825 C307.461643,39.825 311.385143,40.6805 314.984143,42.3915 C318.583143,44.1025 321.710143,46.61 324.365143,49.914 C327.020143,53.218 329.085143,57.289 330.560143,62.127 C332.035143,66.965 332.772643,72.511 332.772643,78.765 C332.772643,84.429 332.330143,89.7095 331.445143,94.6065 C330.560143,99.5035 329.527643,103.25 328.347643,105.846 C327.285643,107.144 325.368143,108.8255 322.595143,110.8905 C319.822143,112.9555 316.813143,115.0205 313.568143,117.0855 C310.323143,119.1505 307.314143,120.891 304.541143,122.307 C301.768143,123.723 299.732643,124.431 298.434643,124.431 C297.844643,124.431 296.104143,124.2245 293.213143,123.8115 C290.322143,123.3985 286.988643,122.897 283.212643,122.307 C279.436643,121.717 275.808143,121.127 272.327143,120.537 C268.846143,119.947 266.161643,119.416 264.273643,118.944 L264.273643,21.771 L257.370643,19.293 L257.370643,10.089 C258.550643,9.853 260.320643,9.5285 262.680643,9.1155 C265.040643,8.7025 267.489143,8.319 270.026143,7.965 C272.563143,7.611 274.834643,7.316 276.840643,7.08 C278.846643,6.844 280.144643,6.726 280.734643,6.726 C281.088643,6.726 281.796643,7.1685 282.858643,8.0535 C283.920643,8.9385 284.923643,9.912 285.867643,10.974 C286.811643,12.036 287.283643,12.803 287.283643,13.275 L286.044643,51.153 L287.106643,51.507 C288.994643,50.091 291.118643,48.498 293.478643,46.728 C295.838643,44.958 297.962643,43.365 299.850643,41.949 C301.738643,40.533 302.859643,39.825 303.213643,39.825 Z M299.496643,56.64 C299.142643,56.64 298.139643,56.994 296.487643,57.702 C294.835643,58.41 293.124643,59.177 291.354643,60.003 C289.584643,60.829 288.227643,61.537 287.283643,62.127 L287.283643,107.793 C288.935643,108.619 290.823643,109.445 292.947643,110.271 C295.071643,111.097 297.107143,111.7165 299.054143,112.1295 C301.001143,112.5425 302.387643,112.631 303.213643,112.395 C304.275643,111.923 305.190143,110.625 305.957143,108.501 C306.724143,106.377 307.314143,103.073 307.727143,98.589 C308.140143,94.105 308.346643,88.323 308.346643,81.243 C308.346643,76.051 307.874643,71.626 306.930643,67.968 C305.986643,64.31 304.806643,61.5075 303.390643,59.5605 C301.974643,57.6135 300.676643,56.64 299.496643,56.64 Z" id="Shape"></path>
                    <path d="M367.110643,84.075 C367.110643,89.857 367.818643,94.4885 369.234643,97.9695 C370.650643,101.4505 372.420643,103.958 374.544643,105.492 C376.668643,107.026 378.674643,107.793 380.562643,107.793 C380.798643,107.793 381.919643,107.734 383.925643,107.616 C385.931643,107.498 388.350643,107.38 391.182643,107.262 C394.014643,107.144 396.787643,107.026 399.501643,106.908 C402.215643,106.79 404.398643,106.731 406.050643,106.731 L406.050643,116.466 C404.280643,116.938 401.920643,117.646 398.970643,118.59 C396.020643,119.534 392.982143,120.419 389.855143,121.245 C386.728143,122.071 383.896143,122.8085 381.359143,123.4575 C378.822143,124.1065 377.081643,124.431 376.137643,124.431 C369.765643,124.431 364.101643,122.9855 359.145643,120.0945 C354.189643,117.2035 350.325143,112.926 347.552143,107.262 C344.779143,101.598 343.392643,94.695 343.392643,86.553 C343.392643,80.889 343.835143,75.52 344.720143,70.446 C345.605143,65.372 346.637643,61.537 347.817643,58.941 C348.879643,57.525 350.797143,55.755 353.570143,53.631 C356.343143,51.507 359.381643,49.4125 362.685643,47.3475 C365.989643,45.2825 369.057643,43.5125 371.889643,42.0375 C374.721643,40.5625 376.786643,39.825 378.084643,39.825 C384.928643,39.825 390.622143,41.005 395.165143,43.365 C399.708143,45.725 403.159643,49.973 405.519643,56.109 C407.879643,62.245 408.941643,71.154 408.705643,82.836 L357.729643,88.146 L357.729643,78.588 L386.226643,73.632 C386.226643,67.142 385.607143,62.009 384.368143,58.233 C383.129143,54.457 380.916643,52.392 377.730643,52.038 C377.022643,51.92 376.078643,51.861 374.898643,51.861 C373.718643,51.861 372.715643,52.038 371.889643,52.392 C370.591643,53.218 369.470643,56.4335 368.526643,62.0385 C367.582643,67.6435 367.110643,74.989 367.110643,84.075 Z" id="Path"></path>
                    <path d="M430.653643,124.431 C430.181643,124.431 429.355643,123.959 428.175643,123.015 C426.995643,122.071 425.874643,121.0385 424.812643,119.9175 C423.750643,118.7965 423.219643,118 423.219643,117.528 L423.219643,21.771 L416.139643,19.293 L416.139643,9.912 C416.139643,9.912 416.847643,9.794 418.263643,9.558 C419.679643,9.322 421.479143,9.027 423.662143,8.673 C425.845143,8.319 428.057643,7.9945 430.299643,7.6995 C432.541643,7.4045 434.518143,7.139 436.229143,6.903 C437.940143,6.667 439.090643,6.549 439.680643,6.549 C440.034643,6.549 440.713143,7.021 441.716143,7.965 C442.719143,8.909 443.692643,9.912 444.636643,10.974 C445.580643,12.036 446.052643,12.803 446.052643,13.275 L446.052643,109.032 L452.778643,111.687 L452.778643,120.891 C452.778643,120.891 451.775643,121.068 449.769643,121.422 C447.763643,121.776 445.374143,122.1595 442.601143,122.5725 C439.828143,122.9855 437.261643,123.3985 434.901643,123.8115 C432.541643,124.2245 431.125643,124.431 430.653643,124.431 Z" id="Path"></path>
                    <path d="M476.496643,68.853 C476.614643,68.499 477.293143,67.732 478.532143,66.552 C479.771143,65.372 481.334643,63.9855 483.222643,62.3925 C485.110643,60.7995 487.028143,59.2655 488.975143,57.7905 C490.922143,56.3155 492.633143,55.0765 494.108143,54.0735 C495.583143,53.0705 496.497643,52.569 496.851643,52.569 C497.559643,52.569 498.680643,53.159 500.214643,54.339 C501.748643,55.519 503.430143,56.994 505.259143,58.764 C507.088143,60.534 508.858143,62.3925 510.569143,64.3395 C512.280143,66.2865 513.637143,68.0565 514.640143,69.6495 C515.643143,71.2425 516.085643,72.334 515.967643,72.924 L514.374643,79.296 C514.256643,80.004 513.253643,81.2135 511.365643,82.9245 C509.477643,84.6355 507.294643,86.435 504.816643,88.323 C502.338643,90.211 500.037643,91.8335 497.913643,93.1905 C495.789643,94.5475 494.373643,95.226 493.665643,95.226 C492.721643,95.226 491.246643,94.341 489.240643,92.571 C487.234643,90.801 485.140143,88.677 482.957143,86.199 C480.774143,83.721 478.915643,81.42 477.381643,79.296 C475.847643,77.172 475.139643,75.756 475.257643,75.048 L476.496643,68.853 Z" id="Path"></path>
                </g>
            </g>
        </g>
    </g>
</svg>